<svg width="28" height="30" viewBox="0 0 28 30" fill="none" xmlns="http://www.w3.org/2000/svg">
<path fill-rule="evenodd" clip-rule="evenodd" d="M19.9273 12.5312C19.9273 17.9606 15.8381 22.133 11.067 22.133C6.29594 22.133 2.20667 17.9606 2.20667 12.5312C2.20667 7.10184 6.29594 2.92944 11.067 2.92944C15.8381 2.92944 19.9273 7.10184 19.9273 12.5312ZM18.0311 21.4341C16.1458 23.1189 13.7173 24.133 11.067 24.133C5.069 24.133 0.206665 18.9387 0.206665 12.5312C0.206665 6.12375 5.069 0.929443 11.067 0.929443C17.065 0.929443 21.9273 6.12375 21.9273 12.5312C21.9273 15.3624 20.978 17.9568 19.4009 19.9708L26.8809 27.9614C27.2583 28.3646 27.2374 28.9975 26.8342 29.3749C26.431 29.7523 25.7982 29.7314 25.4208 29.3282L18.0311 21.4341Z" fill="white"/>
</svg>
